<?xml version="1.0" encoding="utf-8"?>
<!-- Generator: Adobe Illustrator 24.0.1, SVG Export Plug-In . SVG Version: 6.00 Build 0)  -->
<svg version="1.1" id="Layer_1" xmlns="http://www.w3.org/2000/svg" xmlns:xlink="http://www.w3.org/1999/xlink" x="0px" y="0px"
	 viewBox="0 0 288 288.03" style="enable-background:new 0 0 288 288.03;" xml:space="preserve">
<g>
	<path d="M69.87,91.83l10.39,8.4c-0.16,0.58-0.42,1.07-0.73,1.61l0.65,0.52l3.06-3.79l-0.65-0.52c-0.45,0.42-0.84,0.73-1.39,1.02
		l-8.92-7.22l13.58,3.62l0.54-0.67l-6.37-12.6L89,89.47c-0.19,0.58-0.39,1.01-0.71,1.54l0.65,0.52l3.5-4.33l-0.65-0.52
		c-0.45,0.42-0.84,0.73-1.39,1.02l-10.44-8.44c0.21-0.57,0.5-1.18,0.83-1.73l-0.68-0.55l-2.59,3.21l6.53,12.65l-13.78-3.69
		l-2.68,3.31L68.28,93C68.86,92.46,69.37,92.07,69.87,91.83z"/>
	<path d="M99.43,72.08l-0.66-2.14c0.32-0.24,0.62-0.45,0.92-0.64c1.29-0.79,2.23-0.48,3.49,1.6l0.48,0.79
		c-4.39,3.17-4.3,4.97-3.45,6.37c0.85,1.41,2.59,1.82,4.16,0.86c1.26-0.76,1.64-1.66,1.97-3.02c0.71,0.67,1.7,0.74,2.6,0.19
		c0.62-0.38,0.95-0.84,1.14-1.25l-0.54-0.55c-0.08,0.12-0.31,0.34-0.46,0.43c-0.56,0.34-1.01,0.23-1.54-0.63l-2.6-4.3
		c-1.33-2.19-3.02-3.17-5.43-1.71c-1.13,0.68-2.1,1.66-2.86,2.61l1.35,2.23L99.43,72.08z M104.25,72.67l1.52,2.51
		c-0.22,0.83-0.52,1.55-1.37,2.06c-1.18,0.72-2.19,0.28-2.82-0.75c-0.21-0.34-0.33-0.72-0.32-1.17
		C101.97,74.41,102.87,73.61,104.25,72.67z"/>
	<path d="M117.25,61.48l1.71-0.5L121,68c0.51,1.75,1.75,2.55,3.28,2.11c1.16-0.34,1.66-0.98,2.05-1.53l-0.51-0.65
		c-0.29,0.34-0.59,0.63-1.12,0.78c-0.97,0.28-1.42-0.32-1.69-1.25l-2.05-7.06l2.49-0.72l-0.33-1.14l-2.49,0.72l-1.05-3.62
		l-1.84,1.13l0.89,3.08l-1.71,0.5L117.25,61.48z"/>
	<path d="M137,57.41l1.77-0.07l0.3,7.3c0.08,1.82,1.09,2.9,2.69,2.83c1.21-0.05,1.84-0.56,2.35-1l-0.34-0.75
		c-0.36,0.26-0.73,0.47-1.28,0.49c-1.01,0.04-1.3-0.65-1.34-1.61l-0.3-7.34l2.59-0.11l-0.05-1.18l-2.59,0.11l-0.15-3.77l-2.06,0.66
		l0.13,3.2l-1.77,0.07L137,57.41z"/>
	<path d="M160.11,68.2c-0.49-0.2-0.82-0.37-1.24-0.69l1.77-7.69c0.88-0.29,1.93-0.55,2.8-0.34c1,0.23,2.1,0.94,1.6,3.11l-1.39,6.03
		c-0.52,0.1-0.9,0.11-1.46,0.07l-0.17,0.73l4.89,1.13l0.16-0.71c-0.54-0.21-0.93-0.44-1.4-0.77l1.42-6.15
		c0.53-2.31-0.28-4.25-2.44-4.75c-1.35-0.31-2.37,0.02-3.83,0.78l0.59-2.56c0.3-1.3,0.61-2.74,0.79-3.82l-3.99-0.58l-0.21,0.9
		l1.83,0.65c-0.04,0.35-0.36,1.83-0.48,2.39l-2.56,11.11c-0.54,0.1-1.02,0.13-1.6,0.08l-0.16,0.71l4.87,1.12L160.11,68.2z"/>
	<path d="M181.46,77.59c1.67,0.97,3.25,0.99,4.71,0.31l-0.23-0.82c-1.03,0.29-1.97,0.33-3.26-0.41c-1.54-0.89-2.49-3.14-0.82-6.02
		l5.91,3.41c0.32-0.07,0.64-0.19,0.91-0.36c1.34-2.49,0.71-5.14-1.28-6.29c-2.85-1.65-5.98-0.31-7.61,2.52
		C178.04,72.95,178.69,75.98,181.46,77.59z M185.42,67.71c0.3,0.1,0.57,0.2,0.81,0.34c1.52,0.88,2.01,2.53,0.99,4.3
		c-0.07,0.11-3.22-1.66-4.83-2.56C183.21,68.64,184.16,67.92,185.42,67.71z"/>
	<path d="M229.59,133.53c1.46-0.18,2.46-1.55,2.3-2.89c-0.17-1.38-1.47-2.47-2.93-2.3c-1.46,0.18-2.46,1.55-2.3,2.93
		C226.83,132.62,228.14,133.71,229.59,133.53z"/>
	<path d="M214.34,164.16c-0.26,0.85-0.35,1.67-0.29,2.46c0.45,0.01,0.89,0.02,1.34,0.04c0.02-0.45,0.1-0.93,0.26-1.45
		c0.77-2.47,3.57-4.18,8.35-2.7c2.49,0.77,4.26,2.05,5.07,4.1c0,0.21-0.03,0.41-0.05,0.61c0.49,0,0.89,0,1.21,0
		c-0.09-3.28-2.52-6.17-6.17-7.31C219.38,158.46,215.52,160.34,214.34,164.16z"/>
	<path d="M215.55,170.25l0.76-0.52c-0.47-0.76-0.79-1.51-0.89-2.34c-0.4,0.06-0.8,0.13-1.21,0.19
		C214.44,168.52,214.89,169.42,215.55,170.25z"/>
	<path d="M228.77,168.49c-0.33,1.05-0.87,1.91-1.46,2.56l-2.63-0.26l-0.45,1.45l3.6,1.12c1-1.23,1.63-2.44,2.06-3.84
		c0.09-0.28,0.15-0.56,0.2-0.84c-0.35-0.26-0.71-0.53-1.17-0.88C228.89,168.03,228.84,168.27,228.77,168.49z"/>
	<path d="M212.91,191.35c0.65-0.24,1.27-0.75,1.84-1.58c0.75-1.08,1.23-2.37,1.54-3.55l-2.15-1.48l-0.93,1.36l1.48,1.68
		c-0.19,0.35-0.38,0.67-0.58,0.96c-0.86,1.25-1.83,1.35-3.84-0.03l-0.76-0.52c2.7-4.7,1.88-6.3,0.52-7.23
		c-1.36-0.93-3.11-0.59-4.15,0.93c-0.83,1.21-0.81,2.19-0.56,3.56c-0.93-0.32-1.86,0.03-2.45,0.9c-0.41,0.6-0.53,1.15-0.52,1.61
		l0.71,0.28c0.02-0.15,0.14-0.44,0.24-0.58c0.37-0.54,0.83-0.63,1.66-0.06l4.14,2.85c0.25,0.17,0.49,0.32,0.74,0.46
		c0.04-0.07,0.07-0.14,0.11-0.21C210.93,190.91,211.92,191.13,212.91,191.35z M208.56,187.55l-2.42-1.67
		c-0.14-0.84-0.16-1.63,0.4-2.44c0.78-1.14,1.89-1.15,2.88-0.47c0.33,0.22,0.6,0.52,0.77,0.93
		C209.92,185.02,209.43,186.12,208.56,187.55z"/>
	<path d="M196.97,204.73c0.7,0.82,1.45,1.62,2.07,2.25l2.81-2.73l-0.58-0.71l-1.63,1.06c-0.27-0.23-1.25-1.39-1.61-1.83l-4.08-4.97
		c0.27-0.5,0.54-0.9,0.92-1.33l-0.46-0.56l-3.98,3.27l0.46,0.56c0.48-0.28,0.9-0.46,1.45-0.62l3.83,4.66
		c0.29,1.84,0.26,3.19-0.64,3.93l-1.65-1.14l-1.19,0.97l2.03,2.48c0.41-0.05,0.86-0.2,1.35-0.6
		C197.26,208.44,197.35,206.78,196.97,204.73z"/>
	<path d="M179.41,215.75l0.38,2.21c-0.34,0.2-0.68,0.37-1,0.51c-1.38,0.61-2.27,0.19-3.26-2.04l-0.37-0.84
		c4.76-2.59,4.9-4.38,4.23-5.89c-0.67-1.5-2.34-2.13-4.02-1.38c-1.34,0.6-1.83,1.44-2.34,2.74c-0.62-0.76-1.6-0.95-2.56-0.52
		c-0.66,0.29-1.05,0.71-1.29,1.1l0.46,0.61c0.09-0.11,0.35-0.3,0.51-0.37c0.6-0.27,1.04-0.1,1.45,0.82l2.04,4.59
		c1.04,2.35,2.6,3.53,5.17,2.39c1.2-0.53,2.29-1.38,3.17-2.22l-1.06-2.39L179.41,215.75z M174.7,214.55l-1.19-2.69
		c0.32-0.79,0.71-1.47,1.62-1.87c1.26-0.56,2.21,0,2.7,1.11c0.16,0.36,0.24,0.76,0.17,1.2C177.19,213.11,176.19,213.8,174.7,214.55z
		"/>
	<path d="M161.29,224.42c-0.58-0.01-1.05-0.06-1.58-0.22l-5.37-9.46l-1.48,0.19l-2.71,10.51c-0.49,0.29-0.94,0.45-1.49,0.61
		l0.11,0.89l4.37-0.57l-0.12-0.89c-0.58-0.01-0.96-0.05-1.46-0.21l1.89-8.12l3.97,7.36c-0.47,0.28-0.81,0.42-1.36,0.58l0.12,0.89
		l5.22-0.68L161.29,224.42z"/>
	<path d="M128.66,213.84c-0.09-0.03-0.18-0.07-0.28-0.09c-0.71-0.12-1.27,0.02-1.68,0.22l0.05,0.76c0.14-0.04,0.46-0.06,0.63-0.03
		c0.24,0.04,0.43,0.12,0.56,0.25c0.02-0.04,0.05-0.07,0.08-0.11C128.24,214.51,128.45,214.17,128.66,213.84z"/>
	<path d="M127.95,217.4l-0.6,3.74c-0.41,2.53,0.25,4.38,3.02,4.82c1.3,0.21,2.67,0.1,3.87-0.13l0.42-2.58l-1.62-0.26l-0.89,2.06
		c-0.4-0.02-0.77-0.06-1.12-0.11c-1.49-0.24-2-1.08-1.61-3.48l0.15-0.91c5.4,0.43,6.5-1,6.76-2.62c0.26-1.62-0.79-3.06-2.61-3.36
		c-1.45-0.23-2.32,0.2-3.46,1.02c-0.03-0.24-0.09-0.46-0.19-0.66c-0.35,0.42-0.71,0.84-1.07,1.25
		C128.63,216.58,128.3,216.99,127.95,217.4z M130.21,216.51c0.7-0.49,1.4-0.84,2.38-0.68c1.37,0.22,1.85,1.21,1.66,2.4
		c-0.06,0.39-0.21,0.77-0.51,1.1c-1.13,0.24-2.33,0.27-3.99,0.09L130.21,216.51z"/>
	<path d="M112.37,217.21c0.53-1.11,0.46-2.26-0.11-3.25c1.44-0.01,2.47-0.54,2.8-1.21c0.38-0.79,0.38-1.69-0.42-2.42
		c1.14-0.13,1.85-0.66,2.22-1.42c0.54-1.13-0.03-3.13-2.83-4.48c-3.32-1.6-6.06-0.87-6.94,0.96c-0.61,1.26-0.29,2.66,1.81,3.82
		l3.78,2.11c0.51,0.3,0.7,0.82,0.48,1.28c-0.14,0.3-0.58,0.6-1.35,0.74c-0.38-0.43-0.87-0.78-1.46-1.07
		c-2.47-1.19-4.66-0.64-5.6,1.32c-0.38,0.79-0.45,1.63-0.21,2.41c-0.68,0.16-1.46,0-2.05-0.28c-0.16-0.08-0.34-0.16-0.45-0.27
		l-0.83,1.47c0.14,0.12,0.38,0.28,0.57,0.37c0.89,0.43,1.92,0.17,3.02-0.61c0.39,0.75,1.07,1.42,2,1.87
		C109.25,219.75,111.42,219.17,112.37,217.21z M109.89,207.61c-1.27-0.71-1.4-1.33-1.08-2.01c0.21-0.44,0.67-0.84,1.29-1.11
		c1.05,0.09,2,0.35,3.08,0.88c2.03,0.98,2.62,2.29,2.07,3.43c-0.26,0.53-0.68,0.84-1.38,1.04L109.89,207.61z M107.83,217.78
		c-1.48-0.71-1.95-1.96-1.21-3.5c0.45-0.93,1.11-1.39,1.95-1.42c0.23,0.04,0.46,0.1,0.68,0.21c1.48,0.71,1.95,1.96,1.21,3.51
		c-0.41,0.85-1.03,1.33-1.79,1.45C108.4,217.98,108.11,217.91,107.83,217.78z"/>
	<path d="M90.27,192.1c-0.95,1.04-1.04,2.47,0.63,4.18l3.01,3.11c0.41,0.43,0.43,0.99,0.09,1.36c-0.22,0.24-0.73,0.4-1.51,0.31
		c-0.24-0.52-0.6-1-1.09-1.44c-2.02-1.85-4.28-1.95-5.74-0.35c-0.59,0.65-0.9,1.44-0.89,2.24c-0.7-0.05-1.4-0.42-1.89-0.86
		c-0.13-0.12-0.28-0.25-0.36-0.39l-1.22,1.17c0.1,0.15,0.28,0.38,0.44,0.52c0.73,0.67,1.79,0.71,3.07,0.28
		c0.16,0.83,0.62,1.67,1.38,2.36c2.02,1.85,4.28,1.92,5.74,0.32c0.83-0.91,1.09-2.04,0.82-3.14c1.38,0.41,2.52,0.2,3.03-0.35
		c0.59-0.65,0.85-1.51,0.3-2.44c1.13,0.2,1.97-0.1,2.53-0.72c0.84-0.92,0.88-3-1.42-5.11C94.47,190.69,91.64,190.6,90.27,192.1z
		 M90.3,203.76c-0.64,0.7-1.37,0.98-2.14,0.87c-0.25-0.11-0.51-0.26-0.73-0.46c-1.21-1.11-1.3-2.44-0.15-3.7
		c0.69-0.76,1.46-1.01,2.28-0.8c0.21,0.1,0.41,0.23,0.59,0.39C91.37,201.17,91.46,202.5,90.3,203.76z M97.11,197.71
		c-0.4,0.44-0.89,0.61-1.62,0.6l-3.17-3.29c-1.01-1.04-0.96-1.68-0.46-2.23c0.33-0.36,0.89-0.61,1.55-0.69
		c0.98,0.39,1.81,0.91,2.7,1.73C97.79,195.36,97.97,196.78,97.11,197.71z"/>
	<path d="M67.41,188.34c-0.68,0.44-0.88,1.32-0.45,1.98c0.44,0.68,1.32,0.88,2,0.44c0.68-0.44,0.9-1.33,0.46-2.01
		C69,188.08,68.1,187.9,67.41,188.34z"/>
	<path d="M82.09,183.48l0.61-0.39l-2.79-4.36l-0.61,0.39c0.23,0.53,0.36,0.97,0.46,1.53l-5.42,3.46c-1.13,0.72-2.34,1.52-3.24,2.18
		l2.44,3.21l0.78-0.5l-0.85-1.74c0.26-0.24,1.52-1.08,2-1.39l5.42-3.46C81.35,182.73,81.71,183.05,82.09,183.48z"/>
	<path d="M69.5,170.31c3.2-1.01,4.96-3.7,4.04-6.59c-1-3.16-3.97-4.48-7.32-3.42c-3.22,1.02-4.95,3.72-4.04,6.61
		C63.18,170.06,66.15,171.36,69.5,170.31z M67.49,162.19c1.88-0.59,3.25-0.49,4.27,0.2c0.27,0.28,0.48,0.63,0.6,1.03
		c0.67,2.11-0.82,3.96-4,4.97c-1.86,0.59-3.25,0.49-4.28-0.22c-0.27-0.28-0.47-0.61-0.59-1.01
		C62.83,165.07,64.31,163.2,67.49,162.19z"/>
	<path d="M56.11,131.07c-0.17,1.38,0.83,2.76,2.29,2.94c1.46,0.18,2.77-0.91,2.94-2.29c0.17-1.34-0.84-2.72-2.29-2.9
		C57.58,128.63,56.27,129.72,56.11,131.07z"/>
	<path d="M212.91,191.35c-0.99-0.22-1.98-0.44-2.96-0.66c-0.04,0.07-0.07,0.14-0.11,0.21C210.92,191.5,211.95,191.71,212.91,191.35z
		"/>
	<path d="M214.21,167.57c0.41-0.06,0.81-0.13,1.21-0.19c-0.03-0.23-0.04-0.48-0.03-0.73c-0.45-0.01-0.89-0.03-1.34-0.04
		C214.07,166.94,214.13,167.26,214.21,167.57z"/>
	<g>
		<path d="M184.24,170.92c-1.45,0.8-2.99,1.13-4.61,1.32c0.34,6.04-0.18,11.51-2.71,15.29c3.7-2.08,10.18-9.61,10.54-18.34
			C186.36,169.63,185.3,170.34,184.24,170.92z"/>
		<path d="M179.61,171.88c1.11-0.5,2.16-1.03,2.47-2.47c0.06-0.26,0.6-0.49,0.96-0.6c1.46-0.44,2.93-0.85,4.4-1.26
			c-0.55-6.03-5.91-24.18-10.85-39.96c-0.98,2.22-1.96,4.44-3,6.64c-0.08,0.18-0.18,0.35-0.26,0.53
			c2.87,12.01,5.53,26.57,6.24,36.46C179.59,171.44,179.6,171.66,179.61,171.88z"/>
		<path d="M144.02,142.19c-0.27,0-4.03-7.42-8.27-15.94c-0.06-0.02-0.1-0.04-0.16-0.06c-1.61-0.58-2.58-1.94-2.9-4.14
			c0.5,0.26,0.91,0.48,1.32,0.69c-0.43-0.87-0.86-1.74-1.29-2.61c-0.38-0.78-0.77-1.55-1.14-2.32c-4.35-8.84-8.17-16.69-8.17-16.69
			c-1.78-3.44-3.14-1.33-3.39,0.09c0,0.02-0.01,0.05-0.01,0.07c0,0-0.26,0.77-0.71,2.14c-1.32,3.98-4.31,13.08-7.53,23.3
			c0.22,0.18,0.45,0.37,0.67,0.55c-0.13,0.16-0.26,0.32-0.39,0.48c-0.16-0.11-0.34-0.21-0.51-0.31c-1.22,3.88-2.46,7.9-3.66,11.86
			c1.8,0.64,3.6,1.27,5.39,1.91c3.19-14.66,7.07-27.59,8.92-27.59c0.47,0,1.25,0.85,2.26,2.3c0.43,0.61,0.89,1.34,1.39,2.15
			c5.72,9.34,15.61,30.47,17.77,34.72c0.23,0.44,0.37,0.71,0.41,0.75c0.04-0.04,0.15-0.25,0.34-0.6c0.6-1.17,1.95-3.96,3.7-7.55
			c-1.05-1.53-2.1-3.07-3.16-4.61C144.4,141.68,144.09,142.19,144.02,142.19z"/>
		<path d="M112.53,144.66c-0.46-0.26-0.91-0.53-1.36-0.8c-1.01-0.61-1.91-1.47-2.99-1.9c-0.33-0.13-0.66-0.25-1-0.38
			c-3.64,12.2-6.65,23.32-6.65,26.87c0,0.98,0.09,1.95,0.24,2.9c1.94-0.12,3.88-0.17,5.8-0.1c-1.88,0.35-3.75,0.71-5.63,1.06
			c1.51,7.36,6.91,13.4,10.16,15.22c-2.67-4-3.12-9.87-2.66-16.32C108.99,163.94,110.58,154.12,112.53,144.66z"/>
		<path d="M168.11,101.28c-0.21-1.42-1.59-3.66-3.4-0.16c0,0-4.41,9.04-9.17,18.64c-1.81,3.66-3.67,7.4-5.36,10.75
			c-1.81,3.61-3.42,6.76-4.54,8.88c0.7,1.14,1.48,2.25,2.22,3.34c0.19,0.28,0.68,0.49,1.2,0.58c1.66-3.39,3.58-7.28,5.52-11.1
			c0.44-0.87,0.89-1.74,1.33-2.6c4.39-8.49,8.62-15.99,10.01-15.99c1.25,0,3.42,5.93,5.68,14.3c1.36-1.18,2.67-2.42,3.93-3.71
			C171.55,111.59,168.11,101.28,168.11,101.28z"/>
		<path d="M93.73,173.66c-0.48,0.09-1.09,0.27-1.45,0.07c-2.05-1.13-3.99-0.79-5.94-0.08c5.06,7.7,11.53,12.67,14.55,13.88
			c-2.31-4.95-4.04-9.45-5.33-14.21C94.95,173.43,94.34,173.55,93.73,173.66z"/>
		<path d="M199.69,168.16c-0.97,0.05-1.94,0.13-2.92,0.2c-0.01,0-0.02,0-0.04,0c0,0,0,0.01-0.01,0.01c0,0,0,0,0,0
			c0,0-0.02,0.02-0.03,0.03c0.01-0.01,0.02-0.02,0.03-0.03c-0.03,0-0.07,0-0.1,0c-1,0.04-2,0.06-3,0.08c-0.21,1.02-0.66,3-0.66,3
			s-0.16,0.71-0.22,0.87c-1.17,4.55-2.71,8.83-4.78,13.43c0.39,0.27,0.76,0.53,1.11,0.77c4.27-2.62,11.33-9.1,15.7-18.33
			c-0.81-0.04-1.62-0.11-2.43-0.12C201.46,168.05,200.57,168.11,199.69,168.16z"/>
		<path d="M204.59,121.41c-0.38,0.46-0.8,0.96-1.32,1.58c-0.22-1.56,0.48-2.03,1.07-2.5c-2.87-9.96-7.15-19.33-12.86-25.43
			c-13.29-14.2-23.48-18.52-44.31-19.84c0.1,0.29,0.19,0.57,0.22,0.87c0.1,0.94-0.2,1.93-0.37,3.26c-0.86-1.38-0.98-2.8-1.05-4.2
			c-0.64-0.04-1.29-0.07-1.95-0.1c0,0,0,0,0,0c0,0,0,0,0,0c-8.51,0.43-15.3,1.22-21.14,2.75c0.25,0.33,0.5,0.67,0.73,1.02
			c0.02,0.04-0.54,0.53-0.56,0.51c-0.43-0.39-0.84-0.82-1.24-1.24c-5.72,1.63-10.55,4.03-15.24,7.59c0.31,0.48,0.55,1.01,0.73,1.64
			c-0.91-0.03-1.46-0.14-1.98-0.66c-2.88,2.32-5.73,5.09-8.74,8.41c-7.07,7.79-12.01,20.67-14.71,33.35
			c1.84,0.93,3.44,1.84,4.54,2.61c-0.36,0.19-0.48,0.29-0.52,0.27c-1.32-0.88-2.76-1.39-4.24-1.82
			c-2.37,11.58-2.86,22.87-1.39,29.83c0.98,4.65,2.79,8.83,4.95,12.49c0.1,0.05,0.19,0.08,0.29,0.14c0.41,0.24,0.94,0.43,1.39,0.4
			c2.77-0.18,5.53-0.38,8.29-0.59c-1.37-5.51-2.2-11.46-2.71-18.9c-0.26-3.83-0.14-10.6,0.72-18.18c-0.31-0.27-0.61-0.56-0.91-0.84
			c0.32,0.11,0.65,0.23,0.97,0.34c1.43-12.28,4.78-26.55,11.5-33.99c10.99-12.15,24.6-14.41,39.29-14.41c0,0,0,0,0,0c0,0,0,0,0,0
			c1.25,0,2.48,0.02,3.71,0.06c-0.02-1.22,0.04-2.46,0.16-3.71c0.5,1.27,1.28,2.43,1.52,3.77c0.31,0.01,0.62,0.03,0.94,0.05
			c0.17-0.23,0.34-0.46,0.5-0.66c0.67,0.21,1.2,0.47,1.63,0.81c11.44,0.94,21.98,4.31,30.83,14.09
			c10.99,12.15,12.97,42.59,12.28,52.67c-0.39,5.65-0.96,10.45-1.81,14.84c0.46-0.02,0.93-0.03,1.38,0.02
			c0.51,0.05,2.42,0.06,2.84,0.05c2.32-0.04,4.65-0.04,7.01-0.03c1.19-2.6,2.17-5.42,2.8-8.42
			C209.61,150.74,208.53,135.56,204.59,121.41z"/>
		<path d="M187.14,187.53c0.22-0.09,0.47-0.21,0.72-0.34c-0.06-0.3-0.1-0.63-0.12-0.99C187.55,186.64,187.35,187.08,187.14,187.53z"
			/>
	</g>
	<path d="M202.23,80.05c0.4-0.72,0.26-0.46,0.65-1.18l-0.86-0.97l-0.67,0.6c0.31,0.49,0.54,0.9,0.71,1.43
		C202.05,79.92,202.18,80,202.23,80.05z"/>
	<path d="M211.1,88.15l-0.69,0.61c0.31,0.49,0.48,0.84,0.63,1.34l-7.51,3.14l3.99-7.11c0.52,0.22,0.83,0.44,1.26,0.79l0.69-0.61
		l-3.3-3.73l-0.67,0.6c0.3,0.47,0.49,0.85,0.66,1.38l-1.19,2.17l-5.49,2.11l4.03-7.27c0.51,0.25,0.86,0.47,1.3,0.84l0.67-0.6
		l-2.04-2.3c-1.68,3.14-3.36,6.29-5.05,9.43c0.09-0.49,0.11-0.83,0.09-1.04l-0.61-0.16l-0.89,1.66l0.97,1.1l6.24-2.36l-3.18,5.81
		l0.95,1.07l9.99-3.92c0.51,0.25,0.9,0.52,1.31,0.89l0.69-0.61L211.1,88.15z"/>
</g>
</svg>
